# xmcd
#
# Track frame offsets: 
#        150
#        16141
#        37032
#        49517
#        60632
#        74136
#        92153
#        114238
#        127678
#        146130
#        158168
#        179420
#        197328
#        216233
#
# Disc length: 3094 seconds
#
# Revision: 0
# Processed by: cddbd v1.5.2PL0 Copyright (c) Steve Scherf et al.
# Submitted via: ExactAudioCopy v1.3
#
DISCID=c30c140e
DTITLE=Richard Wilkins - What a Life
DYEAR=2019
DGENRE=Blues
TTITLE0=What a Life
TTITLE1=Red Headed Woman
TTITLE2=Talk to Your Daughter
TTITLE3=It Aint the Meat
TTITLE4=Another Day Another Dollar
TTITLE5=Built for Comfort
TTITLE6=Little Girl
TTITLE7=Down in Carolina
TTITLE8=She's Dynamite
TTITLE9=Why Are Poeple Like That
TTITLE10=End of Time
TTITLE11=Too Many Drivers
TTITLE12=I Know You Rider
TTITLE13=Key to the Highway
EXTD=
EXTT0=
EXTT1=
EXTT2=
EXTT3=
EXTT4=
EXTT5=
EXTT6=
EXTT7=
EXTT8=
EXTT9=
EXTT10=
EXTT11=
EXTT12=
EXTT13=
PLAYORDER=
